<svg xmlns="http://www.w3.org/2000/svg" xmlns:xlink="http://www.w3.org/1999/xlink" xmlns:inkscape="http://www.inkscape.org/namespaces/inkscape" version="1.1" width="2040" height="2040" viewBox="0 0 2040 2040">
<defs>
<clipPath id="clip_1">
<path transform="matrix(1,0,0,-1,0,2040)" d="M0 2040H2040V0H0Z"/>
</clipPath>
</defs>
<path transform="matrix(1,0,0,-1,0,2040)" d="M.093 .093H2040.001V2040.001H.093Z" fill="#1f2a44"/>
<g clip-path="url(#clip_1)">
<path transform="matrix(1,0,0,-1,755.8116,1140.4985)" d="M0 0C-6.458 0-11.855 4.545-13.213 10.598-10.264 15.332-7.703 20.488-5.5 25.933-3.815 26.686-1.961 27.124 0 27.124 7.478 27.124 13.562 21.04 13.562 13.56 13.562 6.084 7.478 0 0 0M0 35.204C-.782 35.204-1.523 35.054-2.284 34.973-1.432 37.767-.647 40.605-.001 43.525H-135.965C-127.391 4.782-100.21-23.542-67.982-23.542-48.796-23.542-31.437-13.452-18.69 2.848-14.95-3.646-8.017-8.08 0-8.08 11.933-8.08 21.642 1.629 21.642 13.56 21.642 25.494 11.933 35.204 0 35.204" fill="#a39381"/>
<path transform="matrix(1,0,0,-1,562.3641,995.33767)" d="M0 0C-10.138-41.323-20.538-70.442-32.606-91.365-48.039-118.121-66.103-131.129-87.833-131.129-117.448-131.129-136.583-114.64-136.583-89.123-136.583-41.276-100.424-19.556-70.089-9.761-50.34-3.375-26.287 .001-.531 .001-.355 .001-.177 .001 0 0M78.295 12.051C75.904 12.618 73.469 13.169 71.021 13.695 76.803 40.585 81.615 67.914 85.884 92.16 91.735 125.372 96.788 154.054 102.79 174.817 109.314 197.34 114.408 200.904 115.418 201.406 116.596 200.692 123.478 194.884 128.169 155.395 132.082 122.4 133.19 78.555 134.364 32.135 134.718 18.153 135.048 5.343 135.443-7.346 118.092 .646 98.903 7.162 78.295 12.051M588.564-18.405C588.448-19.746 588.34-21.103 588.232-22.475 584.773-44.691 580.445-64.341 575.365-80.88 572.929-88.814 570.294-96.148 567.531-102.685 567.277-103.111 567.055-103.557 566.874-104.004 566.207-105.619 565.493-107.256 564.734-108.915 564.519-109.399 564.284-109.871 564.02-110.41 563.895-110.676 563.773-110.928 563.602-111.266 563.167-112.165 562.718-113.039 562.258-113.907L562.164-114.086C562.066-114.275 561.967-114.465 561.845-114.686 555.167-127.044 549.184-131.43 546.091-131.43 534.575-131.43 525.623-113.267 523.813-86.234 521.481-51.351 532.365-12.586 549.693 5.938 555.568 12.213 561.472 15.395 567.24 15.395 571.257 15.395 574.646 13.544 577.911 9.563 580.017 7.009 581.919 3.727 583.599-.265 583.764-.635 583.911-1.015 584.092-1.478 584.186-1.71 584.281-1.942 584.359-2.181L584.42-2.355C584.902-3.629 585.377-5.017 585.831-6.479 586.031-7.121 586.222-7.781 586.405-8.44L586.468-8.671C586.617-9.215 586.759-9.765 586.922-10.396 587.01-10.733 587.1-11.068 587.194-11.5 587.521-12.854 587.839-14.361 588.171-16.131 588.318-16.891 588.448-17.65 588.564-18.405M849.665 32.555 849.767 32.553C850.617 32.538 851.932 31.825 853.509 30.05L852.732 29.644 855.856 25.806C857.011 24.385 858.389 21.569 858.389 16.219 858.389 7.117 856.457-12.304 852.887-30.33 849.655-45.893 845.107-61.621 839.655-76.127 835.746-73.085 832.53-69.345 830.063-64.964 816.866-41.525 823.193-2.742 836.627 19.746 841.843 28.474 847.014 32.489 849.665 32.555M939.214-68.807C941.354-39.129 952.113-9.291 966.526 5.846 971.958 11.551 977.373 14.725 982.73 15.299 982.733 15.278 982.736 15.258 982.739 15.237 984.077 5.249 976.787-16.269 965.406-35.928 957.28-49.953 948.028-61.513 939.214-68.807M1068.351-41.866C1063.41-38.664 1056.783-40.074 1053.572-45.009 1044.274-59.331 1025.324-86.69 1002.838-109.048 1002.714-109.175 1002.581-109.304 1002.447-109.433 986.92-124.44 973.525-131.43 960.289-131.43 950.174-131.43 942.212-117.146 939.668-94.766L942.41-93.687 942.028-92.712C942.228-92.602 942.432-92.49 942.64-92.373 943.164-92.07 943.697-91.759 944.246-91.434 957.399-83.524 971.08-69.41 982.771-51.692 998.854-27.323 1007.011-2.016 1004.591 16.005 1004.268 18.415 1003.752 20.761 1003.057 22.977 1000.106 32.376 990.953 48.145 962.803 48.145 942.333 48.145 928.727 40.617 913.075 24.178 889.09-1.03 878.85-42.66 880.307-86.003 875.856-85.81 863.145-85.477 859.28-84.676 861.469-78.898 863.525-72.924 865.412-66.857 868.042-58.398 874.539-30.184 875.189-27.18L875.211-27.06C878.179-10.993 879.747 3.972 879.747 16.219 879.747 21.792 878.828 26.869 877.012 31.369L877.309 31.534 875.385 35.054C867.16 50.105 857.132 53.425 850.148 53.561 850.036 53.562 849.925 53.563 849.814 53.563 838.55 53.563 827.474 45.394 818.592 30.521 801.788 2.39 794.637-44.873 811.759-75.274 816.584-83.842 823.139-90.803 831.272-96.008 828.411-101.938 825.433-107.392 822.396-112.261 816.454-121.16 807.203-131.741 796.817-131.741 796.709-131.741 785.773-130.392 776.929-82.15 770.552-47.374 768.919-7.884 768.57 3.391 767.758 29.594 748.64 45.179 730.177 47.031 715.817 48.494 704.25 41.3 701.382 29.165 697.726 13.689 699.311-19.971 705.237-52.72 694.747-78.621 684.228-99.415 673.975-114.52 666.154-125.51 658.894-131.446 652.913-131.729 652.892-131.705 652.87-131.678 652.847-131.648 651.39-129.837 644.392-118.075 649.592-64.346 652.826-30.944 659.074 1.462 661.209 11.129 663.052 19.457 661.343 27.625 656.397 34.13 651.534 40.524 643.94 45.016 634.435 47.119 618.289 50.685 599.112 45.839 594.931 29.916L594.75 29.212C594.725 29.11 594.707 29.02 594.693 28.945 594.452 27.857 594.174 26.413 593.871 24.7 593.326 25.423 592.77 26.129 592.205 26.817 580.572 40.969 564.842 48.145 545.456 48.145 524.969 48.145 505.999 39.445 490.597 22.984 470.574 1.572 458.473-30.95 456.611-66.805 451.264-79.647 444.498-95.136 437.376-108.589 437.091-109.129 436.807-109.656 436.526-110.177L435.174-112.59C432.803-116.793 430.485-120.68 428.28-124.144 428.222-124.229 428.168-124.312 428.121-124.392 423.611-131.201 420.303-134.717 418.167-136.521 417.69-133.596 417.275-128.492 417.579-119.849 418.043-106.466 419.982-89.628 422.035-71.799L422.079-71.412C425.727-39.784 429.499-7.077 425.682 12.627 421.379 34.868 406.611 48.145 386.179 48.145 368.584 48.145 353.449 38.879 341.198 20.604 339.103 17.481 337.086 14.071 335.158 10.396 335.037 11.16 334.907 11.903 334.767 12.627 330.465 34.868 315.694 48.145 295.255 48.145 276.598 48.145 261.129 38.613 249.134 19.768 249.302 26.575 246.647 32.901 241.374 38.018 232.627 46.522 217.562 50.089 205.55 46.495 196.615 43.813 190.419 37.443 188.549 29.013 186.352 19.075 184.214-7.425 183.024-37.168 175.491-30.65 166.866-24.489 157.185-18.731 156.611-2.367 156.18 14.553 155.763 30.94L155.717 32.736C154.529 79.645 153.408 123.952 149.375 157.912 148.504 165.276 147.597 171.543 146.606 177.069L146.579 177.274C144.582 190.505 140.971 201.843 135.844 210.977 126.664 227.288 112.844 235.91 95.876 235.91 49.002 235.91 33.553 160.021 15.644 72.05 12.467 56.403 8.889 38.79 5.008 21.424-24.785 21.95-52.959 18.218-76.652 10.568-101.264 2.609-120.743-9.35-134.544-24.972-150.069-42.536-157.941-64.12-157.941-89.123-157.941-99.121-156.21-124.761-140.174-146.865-124.166-168.921-98.685-180.579-66.485-180.579 14.814-180.579 48.293-82.76 66.307-7.144 68.62-7.638 70.982-8.169 73.367-8.732 96.725-14.273 117.837-21.911 136.177-31.436 135.85-36.237 133.584-46.899 120.127-49.422 108.568-51.589 100.082-58.799 97.426-68.708 95.731-75.03 96.867-81.03 100.32-83.993L106.446-89.229 106.983-81.177C106.988-81.106 107.508-74.053 112.061-70.567 114.614-68.612 118.181-68.07 122.661-68.971 133.543-71.144 144.024-68.201 150.704-61.094 154.658-56.887 157.012-51.523 157.68-45.563 167.08-52.762 177.133-61.365 182.827-67.721L182.833-67.731C183.069-68.106 183.878-69.079 185.129-70.495 185.265-70.674 185.41-70.858 185.535-71.031 186.07-71.774 186.696-72.426 187.381-72.996 198.012-84.638 224.142-111.323 234.953-116.173L240.646-118.727V-112.487C240.646-104.135 242.812-83.314 244.822-67.52 245.896-59.336 247.167-51.534 248.6-44.328 252.09-26.768 256.631-12.126 262.095-.805 266.53 7.265 271.301 11.712 276.298 12.443 276.972 10.798 277.952 6.861 278.108-.548 278.52-19.585 275.966-42.011 273.487-63.777 271.23-83.566 269.098-102.257 269.098-118.458 269.098-142.074 280.275-156.136 302.317-160.252L302.443-160.273C302.743-160.319 303.042-160.371 303.34-160.421 303.929-160.521 304.519-160.62 305.064-160.689L305.493-160.751C305.989-160.812 306.465-160.879 306.938-160.944L307.433-161.011C312.539-161.585 317.263-161.637 321.666-161.638 322.111-161.659 322.527-161.646 322.949-161.604 323.198-161.585 323.44-161.554 323.687-161.513 323.942-161.483 324.158-161.435 324.339-161.388L324.646-161.317C324.788-161.281 324.927-161.244 325.064-161.202 325.189-161.167 325.313-161.129 325.438-161.085 325.59-161.038 325.718-160.99 325.817-160.95 325.99-160.89 326.159-160.82 326.324-160.74 326.46-160.683 326.597-160.619 326.737-160.55L327.068-160.387C327.22-160.308 327.378-160.216 327.532-160.12 327.63-160.062 327.718-160.008 327.756-159.982 327.899-159.894 328.036-159.804 328.167-159.709 328.382-159.561 328.586-159.41 328.783-159.248 328.808-159.228 328.832-159.208 328.855-159.19L329.331-158.782 329.356-158.743C329.508-158.602 329.651-158.46 329.791-158.307 329.917-158.18 330.03-158.056 330.134-157.93 330.325-157.716 330.503-157.492 330.67-157.258 330.751-157.149 330.829-157.037 330.92-156.902L331.004-156.776C331.068-156.678 331.128-156.58 331.185-156.481 331.25-156.378 331.315-156.271 331.378-156.165L331.646-155.652C331.704-155.536 331.757-155.414 331.806-155.291 331.813-155.273 331.821-155.254 331.829-155.236 331.861-155.163 331.894-155.087 331.926-155.009L332.375-154.355V-153.677C332.428-153.475 332.472-153.282 332.498-153.117L332.532-152.926C332.608-152.602 332.639-152.321 332.657-152.121 332.664-152.073 332.67-152.024 332.676-151.979L332.688-151.852C332.697-151.76 332.701-151.674 332.704-151.593 332.72-151.382 332.726-151.161 332.726-150.919 332.726-150.812 332.724-150.704 332.72-150.597L333.578-148.731 332.191-147.589 332.185-146.425 331.626-145.964C329.866-139.293 328.771-114.039 332.547-81.151 333.888-69.496 336.471-51.9 341.164-34.219 344.099-24.618 347.291-16.156 350.65-9.068 356.886 4.092 362.662 10.25 366.512 12.004 366.997 10.007 367.587 6.238 367.733-.55 368.154-19.536 365.603-42.697 363.135-65.096L363.101-65.404C360.85-85.829 358.724-105.122 358.724-121.31 358.724-161.601 385.88-166.767 409.539-166.767 425.769-166.767 439.872-146.447 449.01-131.255 449.101-131.113 449.188-130.97 449.275-130.826L449.451-130.536C450.443-128.898 451.471-127.137 452.508-125.303 452.583-125.179 452.657-125.055 452.718-124.945 453.079-124.322 453.428-123.7 453.788-123.058 454.162-122.383 454.482-121.831 454.699-121.455 454.941-121.046 455.158-120.614 455.342-120.17 456.931-117.206 458.561-114.028 460.237-110.641 463.394-122.577 468.474-133.384 475.184-142.156 487.513-158.256 504.292-166.767 523.708-166.767 544.775-166.767 562.73-154.731 577.075-130.994L577.158-130.858C579.984-126.38 582.684-121.222 585.163-115.576L585.298-115.27C586.628-112.337 587.923-109.276 589.18-106.098 592.176-127.152 597.701-142.787 605.668-152.706 613.158-162.036 622.648-166.767 633.876-166.767 653.263-166.767 672.042-154.172 689.633-129.414 695.631-121.41 700.128-113.206 703.115-107.754L703.83-106.446C707.013-100.61 710.174-94.353 713.342-87.628 719.13-107.707 727.676-129.619 739.914-145.182 751.109-159.422 763.969-166.684 778.161-166.767H778.465C794.219-166.767 809.068-159.949 822.599-146.5 828.3-140.828 833.771-133.975 838.86-126.132 844.19-118.55 848.31-110.607 851.13-104.468 858.199-106.281 872.408-105.951 880.717-106.073 883.22-123.622 886.761-135.83 893.862-145.323 905.951-161.491 918.198-166.767 937.659-166.767 964.352-166.767 993.506-150.259 1024.311-117.702 1044.179-96.696 1060.937-72.9 1071.497-56.634 1074.699-51.693 1073.288-45.067 1068.351-41.866" fill="#a39381"/>
<path transform="matrix(1,0,0,-1,1465.7614,947.7611)" d="M0 0C7.061 2.185 13.615 5.26 20.067 8.98 33.572 16.876 44.691 34.371 44.691 34.371 53.463 16.197 69.681 4.457 89.981 7.115 100.286 7.985 109.707 12.973 116.391 20.514 117.521 21.773 117.271 23.795 115.863 24.737 107.456 30.46 101.081 34.316 96.404 38.823 91.707 43.056 55.488 77.871 53.22 80.2 49.904 83.546 45.116 85.356 40.086 84.689 31.55 83.556 25.548 75.718 26.681 67.182 27.306 62.468 27.639 57.412 26.71 52.051 23.494 33.661 11.118 17.094-2.141 3.894-4.005 2.4-2.265-.768 0 0" fill="#a39381"/>
<path transform="matrix(1,0,0,-1,961.4838,1258.1192)" d="M0 0C0 12.115 10.13 22.035 22.558 22.348 32.374 22.348 40.207 17.336 40.207 10.965 40.207 7.311 38.118 3.656 33.314 3.656 29.554 3.656 26.526 6.684 26.526 8.877 26.526 8.877 29.868 9.713 29.868 14.621 29.868 18.694 27.361 21.2 23.288 21.2 17.44 21.2 15.038 14.934 15.038 6.161 15.038-8.146 20.991-15.56 29.241-15.56 35.089-15.56 40.102-10.965 42.295-4.386L43.444-4.595C41.251-14.725 34.358-22.453 23.184-22.453 10.443-22.453 0-12.427 0 0" fill="#a39381"/>
<path transform="matrix(1,0,0,-1,1044.1963,1271.2774)" d="M0 0V18.171C-7.206 13.993-11.697 10.339-11.697 2.924-11.697-.314-9.608-3.342-6.684-3.342-3.864-3.342-1.776-2.194 0 0M-26.212 .731C-26.212 11.488-14.516 12.218 0 19.111V26.63C0 31.539-3.029 34.149-6.893 34.149-10.652 34.149-13.994 32.479-13.994 27.57-13.994 22.661-10.652 21.826-10.652 21.826-10.652 19.842-13.159 16.918-16.501 16.605-21.931 16.082-24.333 20.051-24.333 23.915-24.333 30.285-16.501 35.298-6.788 35.298-.105 35.298 5.43 33.522 9.503 30.181 13.053 27.257 15.247 23.184 15.247 17.962V.626C15.247-1.254 15.56-2.924 16.918-2.924 17.649-2.924 18.171-2.402 18.38 .626L19.215 .522C19.215-4.909 14.829-9.295 9.399-9.295 4.49-9.295 .626-5.744 .104-1.044-2.298-5.013-8.042-9.295-13.681-9.295-20.887-9.295-26.212-4.909-26.212 .731" fill="#a39381"/>
<path transform="matrix(1,0,0,-1,1073.8561,1236.9192)" d="M0 0H6.579V8.146C6.579 13.367 8.773 17.44 12.323 20.364 16.396 23.706 21.931 25.481 28.615 25.481 38.327 25.481 46.995 19.529 46.995 12.01 46.995 6.997 43.653 2.507 37.491 2.507 33.209 2.507 31.121 6.684 31.121 9.294 31.121 9.294 35.507 10.443 35.507 16.814 35.507 21.722 32.479 24.333 28.719 24.333 24.855 24.333 21.826 21.722 21.826 16.814V0H28.197V-1.044H21.826V-42.609H6.579V-1.044H0Z" fill="#a39381"/>
<path transform="matrix(1,0,0,-1,1141.2161,1251.9578)" d="M0 0C0 8.46-1.566 15.039-5.639 15.039-9.712 15.039-13.054 8.46-13.158 0ZM-15.665 21.305C-15.665 21.305 .105 40.102 3.342 35.298 6.58 30.703-15.038 20.573-15.038 20.573ZM-28.196-6.161C-28.196 6.161-17.753 16.187-5.012 16.187 6.162 16.187 13.994 9.921 13.994-1.044H-13.158C-12.636-14.307-6.892-21.722 1.044-21.722 6.893-21.722 11.906-17.127 14.099-10.548L15.248-10.756C13.054-20.886 6.162-28.614-5.012-28.614-17.753-28.614-28.196-18.589-28.196-6.161" fill="#a39381"/>
<path transform="matrix(1,0,0,-1,1536.4293,1270.2288)" d="M0 0H-355.174C-355.821 0-356.345 .524-356.345 1.172-356.345 1.819-355.821 2.343-355.174 2.343H0C.647 2.343 1.172 1.819 1.172 1.172 1.172 .524 .647 0 0 0" fill="#a39381"/>
<path transform="matrix(1,0,0,-1,1497.1038,1246.8777)" d="M0 0H-315.848C-316.495 0-317.02 .524-317.02 1.172-317.02 1.819-316.495 2.343-315.848 2.343H0C.647 2.343 1.172 1.819 1.172 1.172 1.172 .524 .647 0 0 0" fill="#a39381"/>
<path transform="matrix(1,0,0,-1,936.2231,1246.8777)" d="M0 0H-315.848C-316.495 0-317.02 .524-317.02 1.172-317.02 1.819-316.495 2.343-315.848 2.343H0C.647 2.343 1.172 1.819 1.172 1.172 1.172 .524 .647 0 0 0" fill="#a39381"/>
<path transform="matrix(1,0,0,-1,936.2231,1270.2288)" d="M0 0H-355.174C-355.821 0-356.345 .524-356.345 1.172-356.345 1.819-355.821 2.343-355.174 2.343H0C.647 2.343 1.172 1.819 1.172 1.172 1.172 .524 .647 0 0 0" fill="#a39381"/>
</g>
</svg>
